<svg width="49" height="49" viewBox="0 0 49 49" fill="none" xmlns="http://www.w3.org/2000/svg">
<path d="M24.5 0C10.9637 0 0 11.2411 0 25.1197C0 36.2352 7.01312 45.6237 16.7519 48.952C17.9769 49.1718 18.4363 48.4182 18.4363 47.7588C18.4363 47.1622 18.4056 45.1841 18.4056 43.0803C12.25 44.2421 10.6575 41.5417 10.1675 40.1287C9.89188 39.4065 8.6975 37.1772 7.65625 36.5806C6.79875 36.1096 5.57375 34.9478 7.62563 34.9164C9.555 34.885 10.9331 36.7376 11.3925 37.4911C13.5975 41.2905 17.1194 40.2229 18.5281 39.5635C18.7425 37.9307 19.3856 36.8318 20.09 36.2038C14.6388 35.5758 8.9425 33.4092 8.9425 23.8009C8.9425 21.0691 9.89187 18.8084 11.4537 17.05C11.2087 16.422 10.3513 13.8472 11.6988 10.3933C11.6988 10.3933 13.7506 9.73388 18.4363 12.968C20.3963 12.4029 22.4788 12.1203 24.5613 12.1203C26.6438 12.1203 28.7263 12.4029 30.6863 12.968C35.3719 9.70248 37.4237 10.3933 37.4237 10.3933C38.7712 13.8472 37.9138 16.422 37.6688 17.05C39.2306 18.8084 40.18 21.0377 40.18 23.8009C40.18 33.4406 34.4531 35.5758 29.0019 36.2038C29.89 36.9888 30.6556 38.4959 30.6556 40.8509C30.6556 44.2107 30.625 46.911 30.625 47.7588C30.625 48.4182 31.0844 49.2032 32.3094 48.952C37.1738 47.2698 41.4009 44.0652 44.3952 39.7897C47.3895 35.5142 49.0001 30.3833 49 25.1197C49 11.2411 38.0363 0 24.5 0Z" fill="#FEFFFE"/>
</svg>
