<svg width="57" height="35" viewBox="0 0 57 35" fill="none" xmlns="http://www.w3.org/2000/svg">
<path d="M18.0729 11.5138L18.0727 11.5141C17.2363 12.9432 16.7027 14.5081 16.4862 16.1678C16.2697 17.8273 16.384 19.4767 16.8283 21.0756C17.2575 22.6197 17.971 24.0497 18.9523 25.3251C19.934 26.6009 21.133 27.6598 22.5152 28.4673L22.5155 28.4674C23.945 29.3038 25.5104 29.8374 27.1705 30.0539C28.8304 30.2705 30.4802 30.1563 32.0795 29.7122L32.0796 29.7121C33.62 29.2849 35.0631 28.5639 36.3298 27.589L36.3306 27.5884C37.599 26.6162 38.6662 25.4066 39.4726 24.027L39.4727 24.0268C40.3092 22.5977 40.8428 21.0327 41.0593 19.3731C41.1704 18.5212 41.9501 17.9217 42.802 18.0328C43.6538 18.1439 44.2536 18.9233 44.1425 19.7752C43.8722 21.8477 43.2042 23.8095 42.1552 25.5995C41.1417 27.3296 39.8163 28.8267 38.2225 30.0524C36.6281 31.2786 34.8382 32.1716 32.9093 32.7074L32.9091 32.7075C30.9096 33.2619 28.8417 33.4042 26.7687 33.1338C24.696 32.8634 22.7339 32.1956 20.9436 31.1469C19.2122 30.1362 17.7147 28.811 16.4886 27.2175C15.2622 25.6235 14.3688 23.8341 13.8328 21.9058C13.275 19.9058 13.1326 17.8381 13.4029 15.7656C13.6733 13.6931 14.3412 11.7313 15.3902 9.94133C16.4038 8.21118 17.7291 6.71414 19.323 5.48841C20.9168 4.26266 22.7041 3.36602 24.6368 2.83043C26.6363 2.27597 28.7042 2.13374 30.7771 2.40413C31.6289 2.51524 32.2288 3.29469 32.1177 4.1466C32.0065 4.9985 31.2268 5.598 30.375 5.48689C28.715 5.27036 27.0653 5.38454 25.466 5.82865L18.0729 11.5138ZM18.0729 11.5138C18.8805 10.132 19.9395 8.93329 21.2155 7.95194C22.4912 6.97093 23.9215 6.25769 25.466 5.82866L18.0729 11.5138Z" fill="url(#paint0_linear_109_11)" stroke="url(#paint1_linear_109_11)"/>
<path d="M5.206 17.901L3.61 19.896V24H1.482V10.738H3.61V17.084H3.705L5.32 14.88L8.569 10.738H11.02L6.65 16.324L11.191 24H8.759L5.206 17.901ZM17.0926 24.228C16.2566 24.228 15.5282 24.076 14.9076 23.772C14.2996 23.4553 13.7929 23.0057 13.3876 22.423C12.9949 21.8403 12.7036 21.1247 12.5136 20.276C12.3236 19.4273 12.2286 18.4583 12.2286 17.369C12.2286 16.2923 12.3236 15.3297 12.5136 14.481C12.7036 13.6197 12.9949 12.8977 13.3876 12.315C13.7929 11.7323 14.2996 11.289 14.9076 10.985C15.5282 10.6683 16.2566 10.51 17.0926 10.51C17.9286 10.51 18.6506 10.6683 19.2586 10.985C19.8792 11.289 20.3859 11.7323 20.7786 12.315C21.1839 12.8977 21.4816 13.6197 21.6716 14.481C21.8616 15.3297 21.9566 16.2923 21.9566 17.369C21.9566 18.4583 21.8616 19.4273 21.6716 20.276C21.4816 21.1247 21.1839 21.8403 20.7786 22.423C20.3859 23.0057 19.8792 23.4553 19.2586 23.772C18.6506 24.076 17.9286 24.228 17.0926 24.228ZM17.0926 22.461C18.0426 22.461 18.7139 22.1063 19.1066 21.397C19.4992 20.675 19.6956 19.6997 19.6956 18.471V16.248C19.6956 15.032 19.4992 14.0693 19.1066 13.36C18.7139 12.638 18.0426 12.277 17.0926 12.277C16.1426 12.277 15.4712 12.638 15.0786 13.36C14.6859 14.0693 14.4896 15.032 14.4896 16.248V18.49C14.4896 19.706 14.6859 20.675 15.0786 21.397C15.4712 22.1063 16.1426 22.461 17.0926 22.461ZM26.1862 13.797H26.0152V24H24.1532V10.738H26.8892L30.7842 20.941H30.9552V10.738H32.8172V24H30.0812L26.1862 13.797ZM39.7637 24.228C38.6111 24.228 37.6421 24.0253 36.8567 23.62C36.0714 23.2147 35.4254 22.6763 34.9187 22.005L36.2867 20.694C36.7934 21.302 37.3317 21.7517 37.9017 22.043C38.4717 22.3217 39.1177 22.461 39.8397 22.461C40.6757 22.461 41.3154 22.271 41.7587 21.891C42.2147 21.511 42.4427 20.9663 42.4427 20.257C42.4427 19.687 42.2781 19.25 41.9487 18.946C41.6194 18.6293 41.0557 18.4013 40.2577 18.262L38.8137 18.034C38.1804 17.9327 37.6484 17.768 37.2177 17.54C36.7871 17.2993 36.4387 17.0207 36.1727 16.704C35.9067 16.3747 35.7104 16.0137 35.5837 15.621C35.4697 15.2157 35.4127 14.7913 35.4127 14.348C35.4127 13.094 35.8181 12.144 36.6287 11.498C37.4394 10.8393 38.5541 10.51 39.9727 10.51C41.0241 10.51 41.9171 10.681 42.6517 11.023C43.3991 11.3523 44.0007 11.821 44.4567 12.429L43.1267 13.759C42.7594 13.3157 42.3224 12.961 41.8157 12.695C41.3217 12.4163 40.7074 12.277 39.9727 12.277C39.1874 12.277 38.5857 12.448 38.1677 12.79C37.7624 13.1193 37.5597 13.607 37.5597 14.253C37.5597 14.7977 37.7181 15.2283 38.0347 15.545C38.3641 15.849 38.9404 16.0707 39.7637 16.21L41.1697 16.457C42.3604 16.6723 43.2281 17.1093 43.7727 17.768C44.3174 18.414 44.5897 19.2057 44.5897 20.143C44.5897 20.751 44.4821 21.3083 44.2667 21.815C44.0641 22.3217 43.7537 22.7523 43.3357 23.107C42.9304 23.4617 42.4237 23.7403 41.8157 23.943C41.2204 24.133 40.5364 24.228 39.7637 24.228ZM52.3343 12.524V24H50.2063V12.524H46.0453V10.738H56.4953V12.524H52.3343Z" fill="#FEFFFE"/>
<defs>
<linearGradient id="paint0_linear_109_11" x1="36.8497" y1="31.63" x2="26.7907" y2="1.30152" gradientUnits="userSpaceOnUse">
<stop stop-color="#0E2365"/>
<stop offset="1" stop-color="#5492AC"/>
</linearGradient>
<linearGradient id="paint1_linear_109_11" x1="35.6341" y1="32.007" x2="24.4334" y2="4.29795" gradientUnits="userSpaceOnUse">
<stop stop-color="#122969"/>
<stop offset="1" stop-color="#4E88A6"/>
</linearGradient>
</defs>
</svg>
